<svg xmlns="http://www.w3.org/2000/svg" viewBox="0 0 858.77 556.61"><defs><style>.cls-1,.cls-2,.cls-6{fill:#e4f3f7;}.cls-1,.cls-11,.cls-12,.cls-6,.cls-7{stroke:#fff;}.cls-1,.cls-11,.cls-12,.cls-23,.cls-6,.cls-7{stroke-miterlimit:10;}.cls-1,.cls-2,.cls-28{opacity:0.5;}.cls-3{fill:#bf5379;}.cls-4{fill:#3b91b2;}.cls-5{fill:#45a3a2;}.cls-6{opacity:0.3;}.cls-11,.cls-12,.cls-23,.cls-7{fill:none;}.cls-8{fill:#fff;}.cls-9{fill:#d26f84;}.cls-10{fill:#e7aa49;}.cls-11{stroke-width:3px;opacity:0.6;}.cls-12{stroke-opacity:0.6;stroke-width:2px;}.cls-13{fill:#eff0f2;}.cls-14{fill:#385662;}.cls-15{fill:#f2b591;}.cls-16{fill:#68331c;}.cls-17{fill:#f5b893;}.cls-18{fill:#ecb99c;}.cls-19{fill:#294a55;}.cls-20{fill:#2f5059;}.cls-21{fill:#e99c70;opacity:0.7;}.cls-22,.cls-26{fill:#e5a98f;}.cls-23{stroke:#e9b08c;}.cls-24{fill:#e9b08c;}.cls-25{fill:#391c0a;}.cls-25,.cls-26{opacity:0.6;}.cls-27{fill:#f5b698;}.cls-28{fill:#d89073;}</style></defs><g id="Layer_2" data-name="Layer 2"><g id="Layer_4" data-name="Layer 4"><rect class="cls-1" x="276.26" y="97.22" width="581.73" height="383.98" rx="12"/><path class="cls-2" d="M288.64,97.22h557A12.38,12.38,0,0,1,858,109.6v17.1a0,0,0,0,1,0,0H276.26a0,0,0,0,1,0,0V109.6A12.38,12.38,0,0,1,288.64,97.22Z"/><circle class="cls-3" cx="295.36" cy="112.54" r="4"/><circle class="cls-4" cx="306.52" cy="112.54" r="4"/><circle class="cls-5" cx="317.48" cy="112.54" r="4"/><rect class="cls-6" x="383.76" y="188.54" width="330.05" height="33.08" rx="10.55"/><path class="cls-3" d="M657.73,188.54h46a10.09,10.09,0,0,1,10.09,10.09v12.9a10.09,10.09,0,0,1-10.09,10.09h-46a0,0,0,0,1,0,0V188.54A0,0,0,0,1,657.73,188.54Z"/><circle class="cls-7" cx="681.91" cy="203.37" r="9.08"/><rect class="cls-8" x="688.94" y="210.92" width="13.1" height="3.06" transform="translate(198.81 -319.28) rotate(30)"/><rect class="cls-1" x="397.78" y="0.5" width="249.16" height="159.63" rx="9.63"/><path class="cls-2" d="M407.41.5h229.9a9.63,9.63,0,0,1,9.63,9.63V15.6a0,0,0,0,1,0,0H397.78a0,0,0,0,1,0,0V10.13A9.63,9.63,0,0,1,407.41.5Z"/><rect class="cls-2" x="423.19" y="24.35" width="205.65" height="6.23"/><rect class="cls-4" x="421.27" y="45.92" width="130.87" height="3.36"/><rect class="cls-4" x="421.27" y="55.51" width="88.21" height="4.31"/><rect class="cls-4" x="421.27" y="64.14" width="132.79" height="4.79"/><rect class="cls-4" x="421.27" y="73.49" width="88.21" height="4.79"/><rect class="cls-4" x="421.27" y="81.88" width="89.4" height="3.84"/><rect class="cls-4" x="421.27" y="97.22" width="132.79" height="4.79"/><rect class="cls-4" x="421.27" y="107.28" width="130.87" height="3.6"/><rect class="cls-4" x="421.27" y="115.43" width="130.87" height="3.6"/><rect class="cls-4" x="421.27" y="124.78" width="88.21" height="5.75"/><rect class="cls-4" x="421.27" y="134.61" width="88.21" height="5.99"/><rect class="cls-2" x="578.75" y="42.57" width="47.94" height="43.14"/><rect class="cls-2" x="581.39" y="102.01" width="47.46" height="42.9"/><rect class="cls-6" x="526.74" y="298.2" width="217.64" height="239.09"/><rect class="cls-2" x="589.06" y="413.61" width="68.67" height="4.13"/><rect class="cls-2" x="591.93" y="446.2" width="131.35" height="4.79"/><rect class="cls-2" x="591.93" y="459.63" width="65.68" height="5.27"/><rect class="cls-2" x="591.93" y="492.23" width="131.35" height="3.84"/><rect class="cls-2" x="591.93" y="505.17" width="65.68" height="5.75"/><rect class="cls-9" x="557.42" y="400.18" width="20.61" height="20.61"/><rect class="cls-10" x="557.42" y="442.37" width="20.61" height="20.61"/><rect class="cls-4" x="557.42" y="494.14" width="20.61" height="20.61"/><rect class="cls-11" x="614.46" y="322.52" width="40.27" height="36.43"/><path class="cls-12" d="M621.11,340.74c4,3.36,7.55,4,11.21,10.55C643,335.53,653.53,323.08,667,313.66" transform="translate(-0.6)"/><path class="cls-4" d="M699.2,385.81l-4.76,4.75a75.47,75.47,0,1,0-.34.35l-5.54,5.53L728.11,436l10.63-10.64Zm-60.13,13.55a63.83,63.83,0,1,1,63.82-63.83A63.82,63.82,0,0,1,639.07,399.36Z" transform="translate(-0.6)"/><path class="cls-9" d="M783.78,406.94h21.57a0,0,0,0,1,0,0V569.81a6.88,6.88,0,0,1-6.88,6.88h-7.81a6.88,6.88,0,0,1-6.88-6.88V406.94a0,0,0,0,1,0,0Z" transform="translate(-115.64 705.89) rotate(-45)"/><rect class="cls-4" x="201.48" y="285.25" width="235.14" height="21.29"/><path class="cls-1" d="M210.76,150.43H427.33a9.29,9.29,0,0,1,9.29,9.29V285.25a0,0,0,0,1,0,0H201.48a0,0,0,0,1,0,0V159.71A9.29,9.29,0,0,1,210.76,150.43Z"/><circle class="cls-3" cx="320.8" cy="214.61" r="33.01"/><path class="cls-13" d="M309.93,194.29v38.47q14.74-8.81,29.48-17.62Z" transform="translate(-0.6)"/><polygon class="cls-13" points="215.14 290.29 215.44 300.83 224.85 295.68 215.14 290.29"/><rect class="cls-13" x="237.43" y="295.56" width="164.67" height="2.64"/><circle class="cls-13" cx="281.55" cy="296.65" r="5.29"/><path class="cls-14" d="M336.08,342.51c-3.68-2.44-10.42-6.09-18.77-5.62s-14.11,4.76-19.7,9.06c-9.52,7.34-24.31,19.07-38.25,31.59,9.17,11,20.95,20.22,30.12,31.27a23.14,23.14,0,0,0-5,5.32c-5.07,7.47-4.42,17.29-4,20,7.43,5.92,15.3,10.31,23.08,16.27,10.33,7.9,20.81,17.75,30.91,25.07,6.81-3.66,17.18-9.57,28.82-13.19,4.28-1.32,7.77.06,13.81,1.46,2.77.65,4.07.95,5.11,2.3a55.14,55.14,0,0,0,13.6-16.26,48.58,48.58,0,0,0,5-30l17.82-5.95a75.53,75.53,0,0,1-16.88-39.09l-5,.32c.16,1.52.48,6.53-2.81,10.63-5.13,6.39-14.46,4.85-15.32,4.69-9.22-1.68-14.36-10.7-18.77-18.45A65.09,65.09,0,0,1,353,354.09a18.95,18.95,0,0,0-16.88-11.58Z" transform="translate(-0.6)"/><path class="cls-15" d="M260.09,378.79q-6.54,7.86-13.76,15.95-9.59,10.69-18.94,20.17a9.27,9.27,0,0,0-1.39,1.41c-3.71,4.64-2,11.59-.94,15.63a37.09,37.09,0,0,0,10.32,18.14,39.5,39.5,0,0,0,12.82,8.13c11.34,4.57,33,16,67.86,36a51.88,51.88,0,0,0,37.84-8.44c4-.63,3.55,2.29,5.4,4.77.24.32.95,2.41,3,1.48a5.78,5.78,0,0,0,3.13-3.75,10.94,10.94,0,0,0,4.69,4.69c1.24.61,3.34,1.65,4.69.63s0-6.15,0-6.34c.38.31,2.72,3.95,4.69,3.83a5.52,5.52,0,0,0,3.76-1.87c1.94-2.27-.6-7.81-3.83-12.12.31,0,5.79,1.17,6-1.17s.71-4.69-1.6-8c-.87-2.14-1.42-2.54-5-4.48-4.49-2.42-10.65-2.68-15.64-1.15-6.89,2.13-16.68,6.52-28.82,13.19-8.92-6.77-18.32-15.8-27.68-22.6q-18.55-13.5-36.69-25.92c.32-1.88.63-3.75.94-5.63l16.89-14.07Z" transform="translate(-0.6)"/><path class="cls-16" d="M406.75,230.88c-8.86-1.27-16.11,2.93-17.51,3.75-5.92,3.43-5.7,6.33-11.57,8.75-5.44,2.25-6.83.26-13.45,2.51-3.7,1.25-9.14,3.09-11.88,7.81-3,5.16.53,8-2.19,14.08s-6.83,4.57-10.63,10.94c-3.35,5.61-.52,7.33-4.38,16.89a63.72,63.72,0,0,1-5.63,10.63c-4.1,6.25-5.36,5.79-6.26,8.76-2.42,8.06,5.28,17,6.26,18.13a47.82,47.82,0,0,0,9.38,7.82c4.46,3.1,5.2,2.85,7.51,5,4.87,4.57,3.3,7.34,7.18,10.64,1.19,1,1.74,1.1,14.71,4.37,7.24,1.84,8.7,2.22,10.94,3.44,3.82,2.08,3.17,2.9,7.82,5.63,0,0,1.78,1.05,10.69,5l4-.26A92.24,92.24,0,0,0,404,386c2.43,9.13,5.52,20.18,14.62,27.85,3.37,2.84,6.92,5.84,11.26,5.32,5.49-.65,10.83-6.75,13.45-11.26,1.56-2.68,1.94-4.44,4.06-5.63.8-.44,3.38-1.67,9.38.32,6.69,2.21,7.18,4.95,13.14,7.81,2.94,1.42,10.38,5,16.89,1.88,3.24-1.55,7.19-5.21,7.19-9.38,0-5.51-6.91-8.53-5.63-11.57.85-2,4.59-2.18,5-2.19,4.56-.12,6.89,3.53,10.32,5.63,8.61,5.28,21.86-.58,27.83-4.38A36.41,36.41,0,0,0,545,374.72c-2.4.54-12.42,2.67-14.07-.62-.56-1.1,0-2.46.94-4.38A79.19,79.19,0,0,1,540,356.9c2.35-3.53,3.6-9.88-1.57-22.2l-13.76-.32A19.69,19.69,0,0,0,534,312.49a24.25,24.25,0,0,1-9.39,7.2c-12.91,5.46-25.72-3.25-26.89-4.07l-31.58-6.25a28.09,28.09,0,0,1-10.64,4.37c-2.81.52-11.29,2.07-15.63-2.5-1.8-1.89-2.42-4.33-2.5-11.88-.15-13.18,1.62-14.2,1.25-21.89-.54-11-4.71-19.62-6.88-24.08a45.64,45.64,0,0,0-6.26-10.32C422.5,239.46,416.5,232.27,406.75,230.88Z" transform="translate(-0.6)"/><path class="cls-17" d="M416.76,254.64a16.25,16.25,0,0,1-7.82,6.88c-4.12,1.55-6.09-.11-10.63,1.56-.92.34-6.34,2.44-8.76,7.51-2.16,4.54.53,6.31-1.56,10-1.95,3.44-4.73,2.68-11.89,8.13-2.86,2.17-4.28,3.26-5.31,5-2.31,3.9-1.11,7.41-.63,13.45s-.2,11.29-1.56,21.89c-1.23,9.56-2.25,10.82-.94,13.76,1.88,4.23,4.64,3.08,12.2,10,4.86,4.46,5.79,6.83,10.94,10.32a41,41,0,0,0,6.88,3.76q.94-9.39,1.88-18.77a23.23,23.23,0,0,0,10.32-1.87C419.45,342,423.1,332,425.51,325c1.5-4.33,1.44-5.67,2.82-35.33.61-13.28.93-19.56-3.13-26.27A28.5,28.5,0,0,0,416.76,254.64Z" transform="translate(-0.6)"/><path class="cls-18" d="M449.28,355.34q-3.6,20.64-7.19,41.27c4.21-.29,10.52-.82,18.13-1.87,25.46-3.51,38.39-5.46,48.48-15.32,2.31-2.27,10.32-10.1,10.94-21.27.4-7.15-2.42-12.43-12.2-27.52-10.06-15.52-17.14-25.46-21.26-31.58a260.72,260.72,0,0,1-20.64-36.9q-8.82-.56-18.45-.63-6,0-11.73.15a28.54,28.54,0,0,0-9.38,6.89,26.68,26.68,0,0,0-2.81,3.75,3.45,3.45,0,0,0,1.25,2.81c1.32.83,3.64.24,4.85-1.87,0,.23-.19,3.51,1.56,4.53s5.4-.29,7.46-4.31a6.87,6.87,0,0,0,2.39,2.44,6.39,6.39,0,0,0,4.06.93c1.72-.23,2.4-1.2,2.85-.87.64.45.12,3-1.28,4.78-2.13,2.75-5.78,3.13-8.76,3.44a27,27,0,0,1-10.79-1.09,4.31,4.31,0,0,0-.47,3c.53,2.06,2.91,3,4.54,3.6,4.1,1.53,5.91.35,10.94,1.4,1.67.35.7.32,5.32,1.72,4,1.22,5.89,1.6,12,3.29l3.91,1.09c.68,3.29,1.5,6.68,2.5,10.16a143.39,143.39,0,0,0,17.36,38.16l2.5,3.44q-7,1.35-14.23,2.65Q460.08,353.59,449.28,355.34Z" transform="translate(-0.6)"/><path class="cls-19" d="M340,354.4a36.22,36.22,0,0,1-2.5,20.43c-2.33,5.11-5.57,8.71-10.85,13.34A145.8,145.8,0,0,1,295.42,409c18-5.51,28.85-14.3,34.3-19.49,7.8-7.44,9.91-12.66,10.84-15.74A32.55,32.55,0,0,0,340,354.4Z" transform="translate(-0.6)"/><path class="cls-20" d="M313.87,445.92a30.17,30.17,0,0,0,12,7.61,31.35,31.35,0,0,0,16.78.73c3.84-.94,6.69-2.5,7-2s-2.28,2.83-5,4.27c-5.79,3.07-11.86,2.07-13.55,1.77C320.65,456.47,315,447.69,313.87,445.92Z" transform="translate(-0.6)"/><path class="cls-21" d="M372,337.82c-.51.6,3.34,5.57,8.75,9.49a41.09,41.09,0,0,0,18,7.19l.73-6.36a46.1,46.1,0,0,1-12.41-2.5C377.94,342.41,372.6,337.16,372,337.82Z" transform="translate(-0.6)"/><path class="cls-22" d="M364.35,488.33a23.59,23.59,0,0,0-5.08-10.71,22.65,22.65,0,0,0-1.64-1.72l8,10.55a1.13,1.13,0,0,1-1.25,1.88Z" transform="translate(-0.6)"/><path class="cls-22" d="M374.77,487.63a62.55,62.55,0,0,0-4.45-6.74,47.91,47.91,0,0,0-3.36-4.38,21.32,21.32,0,0,1,7.42,8.52c.35.75.79,2.15,1,2.85C375,487.88,375.22,487.63,374.77,487.63Z" transform="translate(-0.6)"/><path class="cls-22" d="M379.15,475.58c-.92-2.94-3.41-4.69-5.08-5.87-.56-.4-1-.69-1.33-.86a21,21,0,0,0,2.89,4.61,25.17,25.17,0,0,0,4.09,3.94A9.65,9.65,0,0,0,379.15,475.58Z" transform="translate(-0.6)"/><path class="cls-23" d="M454.13,269c-.69.45-4.08.84-4.85,3.18-.26.78-2.35,2.71-1.41,3.7,1.34,1.42,6.61-.06,8.6-1.3a13.41,13.41,0,0,0,4.69-5.11" transform="translate(-0.6)"/><path class="cls-24" d="M464.6,277.89c-.18,8.49.23,10.17.63,10.21.65.07,2.54-4.2.94-7.92A7.57,7.57,0,0,0,464.6,277.89Z" transform="translate(-0.6)"/><path class="cls-24" d="M429.27,273.25c2.5-1.7,6.56-6.59,9.06-8.29-2.18,2.05-6.83,7.7-9,9.75C429,274.37,429.58,273.6,429.27,273.25Z" transform="translate(-0.6)"/><path class="cls-24" d="M438.29,273.47c1-.58,2.49-2.5,3.9-3.3s1.6-.9,1.67-.83c.3.31-2,5.46-4.28,5.37C438.91,274.69,438.64,273.74,438.29,273.47Z" transform="translate(-0.6)"/><path class="cls-24" d="M445.37,282.11c-.19-.95,5.65-4.27,10.42-2.29a8.17,8.17,0,0,1,2.3,1.45,26.76,26.76,0,0,1-8.24,1.36C447.6,282.64,445.48,282.65,445.37,282.11Z" transform="translate(-0.6)"/><path class="cls-25" d="M405.26,289.12c-.19.07,1.27,4.58,7,20.4a3.63,3.63,0,0,1-.47,3.05,3.72,3.72,0,0,1-3,1.49l-7.19.15c1.1.14,5.91.65,7.74-2a5.77,5.77,0,0,0,.47-4.45C408.54,301.18,405.58,289,405.26,289.12Z" transform="translate(-0.6)"/><path class="cls-25" d="M386.19,296.23c.45-1.17,2-1.49,3.05-1.72,1.33-.28,4.27-.9,6.56,1a6.26,6.26,0,0,1,1.88,2.81,8.47,8.47,0,0,0-3.83-1.72,13.37,13.37,0,0,0-4.69.39c-1.26.24-2.29.51-3,.71A2.29,2.29,0,0,1,386.19,296.23Z" transform="translate(-0.6)"/><path class="cls-16" d="M383.45,289.51c.59-1.93,6.19-1.6,6.73-1.56s6.66.39,7.42,3a1.68,1.68,0,0,1-.15,1.41c-.44.55-1.38.52-3.52.16-3.49-.59-3.31-.88-4.69-.94-2.58-.11-3.6.89-4.77.08A2.25,2.25,0,0,1,383.45,289.51Z" transform="translate(-0.6)"/><path class="cls-16" d="M413.39,285.29c-.15-1,2-2.16,3.68-2.66,2.31-.69,5.7-.63,7.11,1.33.43.59.79,1.52.47,1.87-.5.56-2-1-4.22-.86-2,.17-2.45,1.64-4.46,1.57C414.87,286.5,413.51,286,413.39,285.29Z" transform="translate(-0.6)"/><path class="cls-25" d="M414.25,290.06c-.09-.39,2.23-1.41,4.54-1.8a6.86,6.86,0,0,1,4.46.39c.69.36,1.42.94,1.32,1.17s-1.26-.28-3-.31-1.92.41-4.3.62C416.26,290.22,414.34,290.4,414.25,290.06Z" transform="translate(-0.6)"/><path class="cls-25" d="M419.18,293a3,3,0,0,0-.7,2,3.55,3.55,0,0,0,2.5,3.52,3.35,3.35,0,0,0,3.44-1.41,3.42,3.42,0,0,0-.08-4A3.6,3.6,0,0,0,419.18,293Z" transform="translate(-0.6)"/><path class="cls-25" d="M393.38,318.12c.15-.58,3-.51,5.4.16,1.71.48,3.76,1,4.92,3a5.89,5.89,0,0,1,.78,3.44c-1.67-1-3.08-1.75-4.06-2.27s-2.61-1.34-4.69-2.58C393.45,318.49,393.35,318.26,393.38,318.12Z" transform="translate(-0.6)"/><path class="cls-26" d="M270.09,427c-4.53-3.09-5.44-3.62-6.67-4.07a15,15,0,0,0-7.3-.62l7.72,3.33q5.58,2.4,11.09,4.69C273.69,429.42,272,428.28,270.09,427Z" transform="translate(-0.6)"/><path class="cls-27" d="M353.5,356.28a84.12,84.12,0,0,0,3.68,10.4c3.51,8.22,6.78,15.84,14.33,20.56a19.58,19.58,0,0,0,10.54,3.39c1.91,0,6.84,0,10.62-3.63,4.94-4.78,3.83-11.88,3.71-12.62a28.47,28.47,0,0,1-10.12-4.82c-2-1.54-3-2.77-5.65-4.34a30.65,30.65,0,0,0-7.06-2.9c-8.57-2.53-12.71-1.13-18.39-4.83A20.15,20.15,0,0,1,353.5,356.28Z" transform="translate(-0.6)"/><path class="cls-28" d="M353.58,356.59a86.73,86.73,0,0,0,7.07,17.78c3.39,6.33,5.84,8.95,8,10.75a21.86,21.86,0,0,0,7.95,4.59c2.07.64,7.85,2.43,13.27-.67a13.55,13.55,0,0,0,6.55-14.66,14.26,14.26,0,0,1-2.87,8.79c-4.59,5.91-12.56,5.39-13.45,5.31-8.82-.71-14.4-9-18.86-15.53A56.69,56.69,0,0,1,353.58,356.59Z" transform="translate(-0.6)"/><path class="cls-22" d="M326.17,484.59a26.42,26.42,0,0,1,8.29-9.12,25.05,25.05,0,0,1,4.29-2.31c-1.87,1.84-3.84,3.71-5.91,5.59Q329.47,481.86,326.17,484.59Z" transform="translate(-0.6)"/><path class="cls-8" d="M682.47,86.35A4.19,4.19,0,0,1,679.32,85a4.9,4.9,0,0,1,0-6.65A4.27,4.27,0,0,1,682.47,77a4.21,4.21,0,0,1,3.21,1.32,5,5,0,0,1,0,6.65A4.14,4.14,0,0,1,682.47,86.35Z" transform="translate(-0.6)"/><path class="cls-8" d="M698,86.35A4.16,4.16,0,0,1,694.8,85a4.9,4.9,0,0,1,0-6.65,4.49,4.49,0,0,1,6.36,0,5.08,5.08,0,0,1,0,6.65A4.14,4.14,0,0,1,698,86.35Z" transform="translate(-0.6)"/><path class="cls-8" d="M713.43,86.35A4.2,4.2,0,0,1,710.27,85a4.9,4.9,0,0,1,0-6.65A4.27,4.27,0,0,1,713.43,77a4.21,4.21,0,0,1,3.2,1.32,5,5,0,0,1,0,6.65A4.14,4.14,0,0,1,713.43,86.35Z" transform="translate(-0.6)"/><path class="cls-8" d="M726.89,86.24l-2.92-25,7.32-3.44,2.33,21.68a20,20,0,0,0,4-.72,7.69,7.69,0,0,0,2.78-1.43,6.35,6.35,0,0,0,1.72-2.23,11,11,0,0,0,.88-3,21,21,0,0,0,.16-4V66.47a6.8,6.8,0,0,0-.51-2.78,4.21,4.21,0,0,0-1.43-1.8,3.7,3.7,0,0,0-2.2-.67H724l-.69-5.77h16.27q5.25,0,8.09,3a11.68,11.68,0,0,1,3,8l0,1.75a17.73,17.73,0,0,1-1.45,8.29A13.27,13.27,0,0,1,744.46,82a23.49,23.49,0,0,1-7.61,3.1A50.91,50.91,0,0,1,726.89,86.24Z" transform="translate(-0.6)"/><path class="cls-8" d="M756,85.71V80h10.7a6.85,6.85,0,0,0,2.73-.51,5.37,5.37,0,0,0,2-1.48,6.56,6.56,0,0,0,1.28-2.36,10.73,10.73,0,0,0,.42-3.13V68.59a10.92,10.92,0,0,0-.61-3.79,5.44,5.44,0,0,0-1.93-2.62,5.57,5.57,0,0,0-3.34-1h-3.82l-1,4.46a4,4,0,0,0,.31,3,4.59,4.59,0,0,0,2.92,1.49l-1.22,4.77a11.21,11.21,0,0,1-5.94-1.41A6.09,6.09,0,0,1,756,69.94a11.16,11.16,0,0,1-.13-5L758,55.45h11.18a11.42,11.42,0,0,1,6.33,1.69,11,11,0,0,1,4,4.72,16.63,16.63,0,0,1,1.4,7.1v3.18a17.68,17.68,0,0,1-.87,5.73,11.72,11.72,0,0,1-2.52,4.29,10.65,10.65,0,0,1-3.89,2.65,13.59,13.59,0,0,1-5.07.9Z" transform="translate(-0.6)"/><path class="cls-8" d="M785.93,85.71V61.65l-.58-6.2H793l.63,6.2V85.71Z" transform="translate(-0.6)"/><path class="cls-8" d="M827.69,85.71h-8.16l-10-15.42-4.72,15.42h-7.26l5.88-18.18,1.59-4.08-4.88-8h7.69l4.24,6.89,3.82,5.77,1.43-4.82,2.12-7.84h7.26l-6.36,19.29Z" transform="translate(-0.6)"/><path class="cls-8" d="M1.05,537.88.6,534.45a5.79,5.79,0,0,0,2-.54,1.82,1.82,0,0,0,.89-1.1,6.58,6.58,0,0,0,.23-1.89V517.3h10.6a7,7,0,0,1,3.1.67,4.8,4.8,0,0,1,2.13,2.1,7.88,7.88,0,0,1,.79,3.81v13.41H15.29V523.64a2.56,2.56,0,0,0-.61-1.94,2.4,2.4,0,0,0-1.73-.58H8.82v9.13A9.27,9.27,0,0,1,8,534.52a5.16,5.16,0,0,1-2.54,2.35A13.94,13.94,0,0,1,1.05,537.88Z" transform="translate(-0.6)"/><path class="cls-8" d="M23.17,538.65l-.7-3.95,8.15-1.54a6.68,6.68,0,0,0,2.75-1.07,4.67,4.67,0,0,0,1.56-2,11.28,11.28,0,0,0,.73-3.05,39,39,0,0,0,.23-4.22c0-1.61,0-3.45,0-5.53h5q0,3.44-.12,6.25a32.12,32.12,0,0,1-.59,5.08,11.92,11.92,0,0,1-1.56,4,9,9,0,0,1-3,2.85,15.23,15.23,0,0,1-4.94,1.75Zm5-4.51L24,517.3h5.07L33,534.14Z" transform="translate(-0.6)"/><path class="cls-8" d="M43.4,537.29v-3.78H49a3.79,3.79,0,0,0,2.27-.63,3.59,3.59,0,0,0,1.28-1.75,7.4,7.4,0,0,0,.4-2.52V526a7.25,7.25,0,0,0-.4-2.5,3.58,3.58,0,0,0-1.28-1.73,3.79,3.79,0,0,0-2.27-.63H43.4V517.3h7a7.65,7.65,0,0,1,4.26,1.12,6.86,6.86,0,0,1,2.55,3.14,12,12,0,0,1,.86,4.7v2.07a12,12,0,0,1-.86,4.74,6.8,6.8,0,0,1-2.55,3.12,7.73,7.73,0,0,1-4.26,1.1Z" transform="translate(-0.6)"/><path class="cls-8" d="M80.32,537.29V523.81c0-1.79-.78-2.69-2.34-2.69H68.21V517.3H79.34a6.89,6.89,0,0,1,3.15.7,4.93,4.93,0,0,1,2.14,2.19,8.45,8.45,0,0,1,.77,3.87v13.23Zm-12.11,0V519.58h5.08v17.71Z" transform="translate(-0.6)"/><path class="cls-8" d="M89.28,537.29V521.4l-.38-4.1h5l.42,4.1v15.89Z" transform="translate(-0.6)"/><path class="cls-8" d="M97.3,537.88l-.46-3.43a5.66,5.66,0,0,0,2-.54,1.83,1.83,0,0,0,.9-1.1,6.62,6.62,0,0,0,.22-1.89V517.3H110.6a6.92,6.92,0,0,1,3.09.67,4.82,4.82,0,0,1,2.14,2.1,8,8,0,0,1,.79,3.81v13.41h-5.08V523.64a2.56,2.56,0,0,0-.61-1.94,2.41,2.41,0,0,0-1.73-.58h-4.13v9.13a9.4,9.4,0,0,1-.82,4.27,5.16,5.16,0,0,1-2.54,2.35A14.07,14.07,0,0,1,97.3,537.88Z" transform="translate(-0.6)"/><path class="cls-8" d="M120.33,537.29v-3.78h7.07a4.62,4.62,0,0,0,1.8-.33,3.76,3.76,0,0,0,1.35-1,4.42,4.42,0,0,0,.84-1.56,7.3,7.3,0,0,0,.28-2.07V526a7.49,7.49,0,0,0-.4-2.5,3.64,3.64,0,0,0-1.28-1.73,3.7,3.7,0,0,0-2.21-.63h-2.52l-.63,2.94a2.63,2.63,0,0,0,.21,2,3.08,3.08,0,0,0,1.93,1l-.81,3.15a7.38,7.38,0,0,1-3.92-.93,4,4,0,0,1-1.76-2.34,7.44,7.44,0,0,1-.09-3.28l1.4-6.3H129a7.62,7.62,0,0,1,4.19,1.12,7.24,7.24,0,0,1,2.65,3.12,11,11,0,0,1,.93,4.69v2.1a11.72,11.72,0,0,1-.57,3.78,7.73,7.73,0,0,1-1.67,2.83,7,7,0,0,1-2.57,1.75,8.87,8.87,0,0,1-3.34.6Z" transform="translate(-0.6)"/><path class="cls-8" d="M165.58,537.29h-5.39l-6.58-10.19-3.11,10.19h-4.8l3.89-12,1-2.69-3.22-5.29h5.07l2.8,4.55,2.52,3.82.95-3.19,1.4-5.18H165L160.75,530Z" transform="translate(-0.6)"/><path class="cls-8" d="M167.65,521.12v-8.93h4.55v8.93Zm3.85,16.17,6.3-16.17H167.65V517.3h15.22v4.17l-6.3,15.82Z" transform="translate(-0.6)"/><path class="cls-8" d="M192,537.88l-.45-3.43a5.73,5.73,0,0,0,2-.54,1.82,1.82,0,0,0,.89-1.1,6.58,6.58,0,0,0,.23-1.89V517.3h10.6a7,7,0,0,1,3.1.67,4.8,4.8,0,0,1,2.13,2.1,7.88,7.88,0,0,1,.79,3.81v13.41h-5.07V523.64a2.56,2.56,0,0,0-.62-1.94,2.38,2.38,0,0,0-1.73-.58h-4.13v9.13a9.27,9.27,0,0,1-.82,4.27,5.16,5.16,0,0,1-2.54,2.35A13.94,13.94,0,0,1,192,537.88Z" transform="translate(-0.6)"/><path class="cls-8" d="M217.24,537.64l-2.62-20.34h4.79l1.93,16.17a12.85,12.85,0,0,0,4.41-1,7.53,7.53,0,0,0,2.85-2.08,7.75,7.75,0,0,0,1.52-3.08,16,16,0,0,0,.46-3.92l-.07-6.13h5.07l0,5.88a15.63,15.63,0,0,1-1.89,8.11,11.68,11.68,0,0,1-6,4.88A27.38,27.38,0,0,1,217.24,537.64Zm2.91-8L219,526.51a5.43,5.43,0,0,0,2.43-1.21,4,4,0,0,0,1.1-2.15,17.71,17.71,0,0,0,.28-3.5v-2.31h4.8v2.2a15.3,15.3,0,0,1-.69,4.47,7.56,7.56,0,0,1-2.24,3.37A11.86,11.86,0,0,1,220.15,529.66Z" transform="translate(-0.6)"/><path class="cls-8" d="M238.8,537.29v-3.78h7.07a4.59,4.59,0,0,0,1.8-.33,3.67,3.67,0,0,0,1.35-1,4.42,4.42,0,0,0,.84-1.56,7,7,0,0,0,.28-2.07V526a7.25,7.25,0,0,0-.4-2.5,3.45,3.45,0,0,0-3.48-2.36h-2.52l-.63,2.94a2.53,2.53,0,0,0,.21,2,3,3,0,0,0,1.92,1l-.8,3.15a7.36,7.36,0,0,1-3.92-.93,4,4,0,0,1-1.77-2.34,7.44,7.44,0,0,1-.09-3.28l1.4-6.3h7.39a7.61,7.61,0,0,1,4.18,1.12,7.33,7.33,0,0,1,2.66,3.12,11,11,0,0,1,.93,4.69v2.1a11.72,11.72,0,0,1-.58,3.78,7.85,7.85,0,0,1-1.66,2.83,7,7,0,0,1-2.58,1.75,8.83,8.83,0,0,1-3.34.6Z" transform="translate(-0.6)"/><path class="cls-8" d="M258.54,529.94V521.4l-.38-4.1h5l.42,4.1v5.46l0,2.2Z" transform="translate(-0.6)"/><path class="cls-8" d="M279.47,537.29V523.81c0-1.79-.78-2.69-2.34-2.69h-9.77V517.3h11.13a6.89,6.89,0,0,1,3.15.7,4.91,4.91,0,0,1,2.13,2.19,8.32,8.32,0,0,1,.77,3.87v13.23Zm-12.11,0V519.58h5.08v17.71Z" transform="translate(-0.6)"/><path class="cls-8" d="M290.35,537.64l-2.62-20.34h4.79l1.93,16.17a12.85,12.85,0,0,0,4.41-1,7.53,7.53,0,0,0,2.85-2.08,7.75,7.75,0,0,0,1.52-3.08,15.56,15.56,0,0,0,.46-3.92l-.07-6.13h5.07l0,5.88a15.63,15.63,0,0,1-1.89,8.11,11.64,11.64,0,0,1-6,4.88A27.32,27.32,0,0,1,290.35,537.64Zm2.91-8-1.19-3.15a5.43,5.43,0,0,0,2.43-1.21,3.92,3.92,0,0,0,1.1-2.15,17.71,17.71,0,0,0,.28-3.5v-2.31h4.8v2.2A15,15,0,0,1,300,524a7.65,7.65,0,0,1-2.24,3.37A11.91,11.91,0,0,1,293.26,529.66Z" transform="translate(-0.6)"/><path class="cls-8" d="M319.16,544.29V521.4l-.39-4.1h5l.42,4.1v22.89Z" transform="translate(-0.6)"/><path class="cls-8" d="M340.09,537.29V523.81c0-1.79-.78-2.69-2.35-2.69H328V517.3h11.13a6.89,6.89,0,0,1,3.15.7,4.91,4.91,0,0,1,2.13,2.19,8.32,8.32,0,0,1,.77,3.87v13.23Zm-12.11,0V519.58h5.07v17.71Z" transform="translate(-0.6)"/><path class="cls-8" d="M357.52,537.29V523.64a2.53,2.53,0,0,0-.63-1.94,2.48,2.48,0,0,0-1.75-.58h-6.9V517.3h8.3a7.07,7.07,0,0,1,3.11.67,4.77,4.77,0,0,1,2.14,2.1,8.13,8.13,0,0,1,.77,3.81v13.41Zm-9.28,0v-3.78H364.9v3.78Z" transform="translate(-0.6)"/><path class="cls-8" d="M367.53,537.29,370,523.81l-2.8-6.51h5.25l2.34,6.76-2.17,13.23Zm7.7,0,.45-3.78a6.79,6.79,0,0,0,4,0,3.61,3.61,0,0,0,2-2.26,11.65,11.65,0,0,0,.54-4.09,11.84,11.84,0,0,0-.49-3.57,3.86,3.86,0,0,0-1.29-2,3.52,3.52,0,0,0-2.14-.61,3.84,3.84,0,0,0-1.71.38,3.17,3.17,0,0,0-1.26,1.12,4.07,4.07,0,0,0-.63,1.75l-1.16-2.17a6.79,6.79,0,0,1,2.3-3.86,5.64,5.64,0,0,1,3.51-1.21,8.2,8.2,0,0,1,3.28.61,6,6,0,0,1,2.39,1.87,8.66,8.66,0,0,1,1.49,3.19,17.59,17.59,0,0,1,.51,4.48,13.35,13.35,0,0,1-1.35,6.44,7.6,7.6,0,0,1-4,3.62A10.7,10.7,0,0,1,375.23,537.32Z" transform="translate(-0.6)"/><path class="cls-8" d="M390.1,537.29v-9.56l.7-2.34h4.38v11.9Zm11.69,0V523.64a2.56,2.56,0,0,0-.61-1.94,2.41,2.41,0,0,0-1.73-.58h-9.14V517.3h10.5a7.08,7.08,0,0,1,3.12.67,4.79,4.79,0,0,1,2.15,2.1,7.88,7.88,0,0,1,.79,3.81v13.41Z" transform="translate(-0.6)"/><path class="cls-8" d="M412.5,537.64l-2.62-20.34h4.79l1.93,16.17a12.85,12.85,0,0,0,4.41-1,7.53,7.53,0,0,0,2.85-2.08,7.75,7.75,0,0,0,1.52-3.08,15.56,15.56,0,0,0,.46-3.92l-.07-6.13h5.07l0,5.88a15.63,15.63,0,0,1-1.89,8.11,11.68,11.68,0,0,1-6,4.88A27.32,27.32,0,0,1,412.5,537.64Zm2.91-8-1.19-3.15a5.43,5.43,0,0,0,2.43-1.21,3.92,3.92,0,0,0,1.1-2.15,17.71,17.71,0,0,0,.28-3.5v-2.31h4.8v2.2a15.31,15.31,0,0,1-.68,4.47,7.65,7.65,0,0,1-2.24,3.37A12,12,0,0,1,415.41,529.66Z" transform="translate(-0.6)"/><path class="cls-8" d="M440.89,537.29v-9.56l.7-2.34H446v11.9Zm11.69,0V523.64a2.6,2.6,0,0,0-.61-1.94,2.42,2.42,0,0,0-1.74-.58H441.1V517.3h10.5a7.07,7.07,0,0,1,3.11.67,4.86,4.86,0,0,1,2.16,2.1,8,8,0,0,1,.78,3.81v13.41Z" transform="translate(-0.6)"/><path class="cls-8" d="M479.88,537.29h-5.39l-6.58-10.19-3.12,10.19H460l3.88-12,1.05-2.69-3.22-5.29h5.08l2.8,4.55,2.52,3.82.94-3.19,1.4-5.18h4.8L475.05,530Z" transform="translate(-0.6)"/><path class="cls-8" d="M491,537.29V523.64a2.6,2.6,0,0,0-.61-1.94,2.42,2.42,0,0,0-1.74-.58H481.8V517.3H490a7.07,7.07,0,0,1,3.11.67,4.79,4.79,0,0,1,2.15,2.1,7.88,7.88,0,0,1,.79,3.81v13.41Z" transform="translate(-0.6)"/><path class="cls-8" d="M499.27,537.29v-3.78h5.14V523.39a2.6,2.6,0,0,0-.5-1.83,2.33,2.33,0,0,0-1.42-.62l-2.45-.31.63-3.75,4.37.56a4.55,4.55,0,0,1,3.29,1.84,6.61,6.61,0,0,1,1.12,4v14Z" transform="translate(-0.6)"/></g></g></svg>